<?xml version="1.0" standalone="no"?>
<!DOCTYPE svg PUBLIC "-//W3C//DTD SVG 20010904//EN"
 "http://www.w3.org/TR/2001/REC-SVG-20010904/DTD/svg10.dtd">
<svg version="1.0" xmlns="http://www.w3.org/2000/svg"
 width="1200.000000pt" height="675.000000pt" viewBox="0 0 1200.000000 675.000000"
 preserveAspectRatio="xMidYMid meet">

<g transform="translate(0.000000,675.000000) scale(0.100000,-0.100000)"
fill="#000000" stroke="none">
<path d="M3280 4534 c-303 -39 -549 -155 -749 -353 -428 -425 -480 -1098 -121
-1580 72 -96 204 -222 297 -284 97 -65 256 -139 311 -145 66 -7 72 6 72 152
l0 121 -117 0 c-99 0 -125 3 -163 21 -62 29 -107 76 -144 153 -29 61 -80 122
-151 180 -28 23 -29 24 -10 38 52 39 164 -17 235 -117 29 -40 65 -77 95 -95
43 -26 57 -30 124 -30 98 0 130 16 146 72 7 23 23 58 35 78 12 20 21 37 19 38
-2 2 -44 11 -94 20 -217 43 -366 166 -419 347 -9 30 -21 96 -27 146 -16 149
12 268 91 377 27 38 29 47 20 71 -16 43 -11 184 8 241 l17 50 43 -2 c61 -3
125 -26 216 -77 l77 -45 72 17 c102 23 377 22 470 -1 l69 -17 57 33 c75 45
174 84 233 92 46 7 48 6 59 -21 24 -63 33 -163 21 -235 -12 -68 -11 -71 12
-102 14 -18 39 -64 57 -101 28 -60 33 -83 37 -171 10 -232 -69 -419 -218 -515
-63 -41 -193 -86 -271 -95 -61 -7 -69 -14 -44 -35 8 -6 23 -36 35 -66 18 -49
20 -78 20 -267 0 -241 4 -257 65 -257 44 0 192 63 287 123 288 179 495 485
554 817 23 128 20 323 -6 449 -99 485 -472 855 -965 956 -79 16 -288 27 -355
19z"/>
<path d="M5532 3945 c-230 -52 -343 -200 -372 -489 -24 -241 32 -461 146 -565
95 -88 211 -125 394 -125 136 0 214 16 302 60 l48 24 -2 298 -3 297 -194 3
c-137 2 -198 -1 -208 -9 -10 -9 -13 -35 -11 -108 l3 -96 83 -3 82 -3 0 -113 0
-113 -31 -7 c-54 -10 -133 -7 -186 9 -66 20 -122 81 -149 162 -26 79 -27 293
-2 374 22 69 83 141 140 164 66 26 188 31 291 10 48 -10 90 -15 93 -12 8 7 44
156 44 178 0 40 -108 69 -285 75 -82 2 -140 -1 -183 -11z"/>
<path d="M7202 3908 c-9 -9 -12 -141 -12 -565 l0 -553 23 -5 c12 -3 67 -5 122
-3 l100 3 3 243 2 242 185 0 185 0 0 -240 0 -240 23 -5 c12 -3 67 -5 122 -3
l100 3 0 565 0 565 -109 3 c-71 2 -113 -1 -122 -9 -11 -9 -14 -53 -14 -215 l0
-204 -182 2 -183 3 -5 210 -5 210 -110 3 c-77 2 -114 -1 -123 -10z"/>
<path d="M9062 3912 c-10 -7 -12 -127 -10 -568 l3 -559 83 -3 83 -3 12 30 11
29 56 -29 c122 -62 298 -60 383 4 104 78 155 316 113 518 -19 86 -45 137 -94
181 -54 48 -101 63 -202 62 -76 -1 -109 -7 -182 -39 -17 -7 -18 6 -18 183 0
164 -2 191 -16 196 -23 9 -207 7 -222 -2z m454 -566 c35 -40 47 -99 42 -206
-5 -109 -22 -151 -68 -170 -35 -14 -120 -9 -162 11 l-28 12 0 179 c0 98 1 178
3 178 1 0 20 7 42 15 24 9 62 14 94 12 44 -3 59 -9 77 -31z"/>
<path d="M6251 3872 c-50 -25 -74 -63 -74 -116 0 -136 181 -187 253 -71 71
115 -58 250 -179 187z"/>
<path d="M6657 3774 c-4 -4 -7 -56 -7 -115 l0 -109 -27 -6 c-16 -3 -46 -11
-68 -17 l-40 -12 -3 -68 c-4 -88 4 -97 79 -97 l59 0 0 -202 c0 -182 3 -208 21
-248 37 -81 83 -112 193 -130 73 -12 194 2 208 23 5 7 7 46 6 87 l-3 75 -69 6
c-59 5 -73 10 -93 33 -22 26 -23 34 -23 191 l0 164 88 3 87 3 0 100 0 100 -87
3 -87 3 -3 107 -3 107 -111 3 c-60 1 -113 -1 -117 -4z"/>
<path d="M6197 3554 c-4 -4 -7 -174 -7 -379 0 -275 3 -374 12 -383 14 -14 205
-17 226 -4 9 7 12 91 10 388 l-3 379 -116 3 c-63 1 -118 -1 -122 -4z"/>
<path d="M8192 3242 c3 -307 3 -308 29 -357 33 -66 93 -103 189 -118 87 -13
187 1 269 38 65 31 69 31 73 3 3 -22 8 -23 83 -23 l80 0 3 383 2 383 -122 -3
-123 -3 -3 -276 -2 -276 -27 -12 c-43 -19 -119 -25 -152 -11 -18 7 -34 24 -40
42 -7 19 -11 131 -11 284 l0 254 -126 0 -125 0 3 -308z"/>
<path d="M2605 2800 c3 -5 10 -10 16 -10 5 0 9 5 9 10 0 6 -7 10 -16 10 -8 0
-12 -4 -9 -10z"/>
<path d="M2657 2764 c-9 -10 2 -24 18 -24 9 0 12 6 9 15 -6 16 -17 19 -27 9z"/>
<path d="M2705 2700 c-8 -13 3 -30 21 -30 18 0 18 14 0 29 -10 8 -16 9 -21 1z"/>
<path d="M2762 2623 c4 -22 38 -30 38 -10 0 8 -7 18 -16 21 -23 9 -26 8 -22
-11z"/>
<path d="M2845 2580 c-9 -15 4 -30 26 -30 23 0 26 25 3 34 -21 8 -22 8 -29 -4z"/>
<path d="M3037 2574 c-10 -11 3 -24 24 -24 10 0 19 7 19 15 0 15 -31 21 -43 9z"/>
<path d="M2945 2559 c-4 -6 -2 -15 5 -19 17 -10 42 -1 37 14 -5 16 -34 19 -42
5z"/>
</g>
</svg>
